# MagicaVoxel @ ephtracy

# material
mtllib chr_player_heavysword.mtl
usemtl palette

# normals
vn -1 0 0
vn 1 0 0
vn 0 0 1
vn 0 0 -1
vn 0 -1 0
vn 0 1 0

# texcoords
vt 0.306641 0.5
vt 0.587891 0.5
vt 0.728516 0.5
vt 0.962891 0.5
vt 0.982422 0.5

# verts
v -3 5 1
v -3 5 -1
v -3 6 1
v -3 6 -1
v -3 32 1
v -3 32 -1
v -1 0 1
v -1 0 -1
v -1 2 1
v -1 2 -1
v -1 4 -0
v -1 4 -1
v -1 5 1
v -1 5 -0
v -1 5 -1
v 1 0 1
v 1 0 -1
v 1 2 1
v 1 2 -1
v 1 4 -0
v 1 4 -1
v 1 5 1
v 1 5 -0
v 1 5 -1
v 1 31 1
v 1 31 -1
v 1 32 1
v 1 32 -1
v 2 30 1
v 2 30 -1
v 2 31 1
v 2 31 -1
v 3 5 1
v 3 5 -1
v 3 6 1
v 3 6 -1
v 3 30 1
v 3 30 -1
v -3 5 1
v -3 6 1
v -3 32 1
v -2 6 1
v -2 32 1
v -1 0 1
v -1 2 1
v -1 5 1
v -1 6 1
v -1 7 1
v 1 0 1
v 1 2 1
v 1 5 1
v 1 6 1
v 1 7 1
v 1 31 1
v 1 32 1
v 2 30 1
v 2 31 1
v 3 5 1
v 3 6 1
v 3 30 1
v -3 5 -1
v -3 6 -1
v -3 32 -1
v -2 6 -1
v -2 32 -1
v -1 0 -1
v -1 2 -1
v -1 4 -1
v -1 5 -1
v -1 6 -1
v -1 7 -1
v 0 5 -1
v 0 6 -1
v 1 0 -1
v 1 2 -1
v 1 4 -1
v 1 5 -1
v 1 6 -1
v 1 7 -1
v 1 31 -1
v 1 32 -1
v 2 30 -1
v 2 31 -1
v 3 5 -1
v 3 6 -1
v 3 30 -1
v -1 0 1
v 1 0 1
v -1 0 -1
v 1 0 -1
v -3 5 1
v -1 5 1
v 1 5 1
v 3 5 1
v -1 5 -0
v 1 5 -0
v -3 5 -1
v -1 5 -1
v 1 5 -1
v 3 5 -1
v 2 30 1
v 3 30 1
v 2 30 -1
v 3 30 -1
v 1 31 1
v 2 31 1
v 1 31 -1
v 2 31 -1
v -3 32 1
v -2 32 1
v 1 32 1
v -3 32 -1
v -2 32 -1
v 1 32 -1

# faces
f 3/2/1 2/2/1 1/2/1
f 4/2/1 2/2/1 3/2/1
f 5/5/1 4/5/1 3/5/1
f 6/5/1 4/5/1 5/5/1
f 9/2/1 8/2/1 7/2/1
f 10/2/1 8/2/1 9/2/1
f 11/3/1 10/3/1 9/3/1
f 12/3/1 10/3/1 11/3/1
f 13/3/1 11/3/1 9/3/1
f 14/2/1 12/2/1 11/2/1
f 14/3/1 11/3/1 13/3/1
f 15/2/1 12/2/1 14/2/1
f 16/2/2 17/2/2 18/2/2
f 18/2/2 17/2/2 19/2/2
f 18/3/2 19/3/2 20/3/2
f 20/3/2 19/3/2 21/3/2
f 18/3/2 20/3/2 22/3/2
f 20/2/2 21/2/2 23/2/2
f 22/3/2 20/3/2 23/3/2
f 23/2/2 21/2/2 24/2/2
f 25/4/2 26/4/2 27/4/2
f 27/4/2 26/4/2 28/4/2
f 29/4/2 30/4/2 31/4/2
f 31/4/2 30/4/2 32/4/2
f 33/2/2 34/2/2 35/2/2
f 35/2/2 34/2/2 36/2/2
f 35/4/2 36/4/2 37/4/2
f 37/4/2 36/4/2 38/4/2
f 42/2/3 40/2/3 39/2/3
f 42/5/3 41/5/3 40/5/3
f 43/5/3 41/5/3 42/5/3
f 46/2/3 42/2/3 39/2/3
f 47/4/3 43/4/3 42/4/3
f 47/2/3 42/2/3 46/2/3
f 48/4/3 43/4/3 47/4/3
f 49/2/3 45/2/3 44/2/3
f 50/3/3 46/3/3 45/3/3
f 50/2/3 45/2/3 49/2/3
f 51/2/3 47/2/3 46/2/3
f 51/3/3 46/3/3 50/3/3
f 52/1/3 48/1/3 47/1/3
f 52/2/3 47/2/3 51/2/3
f 53/4/3 43/4/3 48/4/3
f 53/1/3 48/1/3 52/1/3
f 54/4/3 43/4/3 53/4/3
f 55/4/3 43/4/3 54/4/3
f 56/4/3 54/4/3 53/4/3
f 56/4/3 53/4/3 52/4/3
f 57/4/3 54/4/3 56/4/3
f 58/2/3 52/2/3 51/2/3
f 59/4/3 56/4/3 52/4/3
f 59/2/3 52/2/3 58/2/3
f 60/4/3 56/4/3 59/4/3
f 61/2/4 62/2/4 64/2/4
f 62/5/4 63/5/4 64/5/4
f 64/5/4 63/5/4 65/5/4
f 61/2/4 64/2/4 69/2/4
f 64/4/4 65/4/4 70/4/4
f 69/2/4 64/2/4 70/2/4
f 70/4/4 65/4/4 71/4/4
f 68/2/4 69/2/4 72/2/4
f 69/2/4 70/2/4 72/2/4
f 70/1/4 71/1/4 73/1/4
f 72/2/4 70/2/4 73/2/4
f 66/2/4 67/2/4 74/2/4
f 67/3/4 68/3/4 75/3/4
f 74/2/4 67/2/4 75/2/4
f 68/2/4 72/2/4 76/2/4
f 75/3/4 68/3/4 76/3/4
f 72/3/4 73/3/4 77/3/4
f 76/2/4 72/2/4 77/2/4
f 73/1/4 71/1/4 78/1/4
f 77/3/4 73/3/4 78/3/4
f 71/4/4 65/4/4 79/4/4
f 78/1/4 71/1/4 79/1/4
f 79/4/4 65/4/4 80/4/4
f 80/4/4 65/4/4 81/4/4
f 79/4/4 80/4/4 82/4/4
f 78/4/4 79/4/4 82/4/4
f 82/4/4 80/4/4 83/4/4
f 77/2/4 78/2/4 84/2/4
f 78/4/4 82/4/4 85/4/4
f 84/2/4 78/2/4 85/2/4
f 85/4/4 82/4/4 86/4/4
f 89/2/5 88/2/5 87/2/5
f 90/2/5 88/2/5 89/2/5
f 95/2/5 92/2/5 91/2/5
f 96/2/5 94/2/5 93/2/5
f 97/2/5 95/2/5 91/2/5
f 98/2/5 95/2/5 97/2/5
f 99/2/5 94/2/5 96/2/5
f 100/2/5 94/2/5 99/2/5
f 101/4/6 102/4/6 103/4/6
f 103/4/6 102/4/6 104/4/6
f 105/4/6 106/4/6 107/4/6
f 107/4/6 106/4/6 108/4/6
f 109/5/6 110/5/6 112/5/6
f 110/4/6 111/4/6 113/4/6
f 112/5/6 110/5/6 113/5/6
f 113/4/6 111/4/6 114/4/6
