# MagicaVoxel @ ephtracy

# material
mtllib chr_player_head.mtl
usemtl palette

# normals
vn -1 0 0
vn 1 0 0
vn 0 0 1
vn 0 0 -1
vn 0 -1 0
vn 0 1 0

# texcoords
vt 0.0332031 0.5
vt 0.0605469 0.5
vt 0.0644531 0.5
vt 0.0683594 0.5
vt 0.306641 0.5
vt 0.369141 0.5
vt 0.396484 0.5
vt 0.486328 0.5
vt 0.603516 0.5
vt 0.607422 0.5
vt 0.623047 0.5
vt 0.767578 0.5
vt 0.958984 0.5
vt 0.994141 0.5

# verts
v -4 0 4
v -4 0 -4
v -4 2 -1
v -4 2 -4
v -4 3 2
v -4 3 1
v -4 4 3
v -4 4 2
v -4 4 1
v -4 4 -1
v -4 5 4
v -4 5 3
v -4 8 4
v -4 8 -4
v 4 0 4
v 4 0 -4
v 4 2 -1
v 4 2 -4
v 4 3 2
v 4 3 1
v 4 4 3
v 4 4 2
v 4 4 1
v 4 4 -1
v 4 5 4
v 4 5 3
v 4 8 4
v 4 8 -4
v -4 0 4
v -4 5 4
v -4 8 4
v -3 3 4
v -3 4 4
v -3 5 4
v -3 6 4
v -2 0 4
v -2 2 4
v -2 3 4
v -2 4 4
v -1 1 4
v -1 2 4
v -1 3 4
v -1 4 4
v 1 1 4
v 1 2 4
v 1 3 4
v 1 4 4
v 2 0 4
v 2 2 4
v 2 3 4
v 2 4 4
v 3 3 4
v 3 4 4
v 3 5 4
v 3 6 4
v 4 0 4
v 4 5 4
v 4 8 4
v -4 0 -4
v -4 2 -4
v -4 8 -4
v -3 1 -4
v -3 2 -4
v 3 1 -4
v 3 2 -4
v 4 0 -4
v 4 2 -4
v 4 8 -4
v -4 0 4
v -2 0 4
v 2 0 4
v 4 0 4
v -3 0 3
v -2 0 3
v 2 0 3
v 3 0 3
v -2 0 -0
v -1 0 -0
v 1 0 -0
v 2 0 -0
v -2 0 -1
v -1 0 -1
v 1 0 -1
v 2 0 -1
v -3 0 -3
v 3 0 -3
v -4 0 -4
v 4 0 -4
v -4 8 4
v 4 8 4
v -4 8 -4
v 4 8 -4

# faces
f 3/1/1 2/1/1 1/1/1
f 4/1/1 2/1/1 3/1/1
f 5/1/1 3/1/1 1/1/1
f 6/1/1 3/1/1 5/1/1
f 7/1/1 5/1/1 1/1/1
f 8/14/1 6/14/1 5/14/1
f 8/1/1 5/1/1 7/1/1
f 9/1/1 3/1/1 6/1/1
f 9/14/1 6/14/1 8/14/1
f 10/14/1 4/14/1 3/14/1
f 10/1/1 3/1/1 9/1/1
f 11/1/1 7/1/1 1/1/1
f 12/14/1 9/14/1 8/14/1
f 12/1/1 7/1/1 11/1/1
f 12/14/1 8/14/1 7/14/1
f 12/14/1 10/14/1 9/14/1
f 13/14/1 12/14/1 11/14/1
f 14/14/1 4/14/1 10/14/1
f 14/14/1 12/14/1 13/14/1
f 14/14/1 10/14/1 12/14/1
f 15/1/2 16/1/2 17/1/2
f 17/1/2 16/1/2 18/1/2
f 15/1/2 17/1/2 19/1/2
f 19/1/2 17/1/2 20/1/2
f 15/1/2 19/1/2 21/1/2
f 19/14/2 20/14/2 22/14/2
f 21/1/2 19/1/2 22/1/2
f 20/1/2 17/1/2 23/1/2
f 22/14/2 20/14/2 23/14/2
f 17/14/2 18/14/2 24/14/2
f 23/1/2 17/1/2 24/1/2
f 15/1/2 21/1/2 25/1/2
f 22/14/2 23/14/2 26/14/2
f 25/1/2 21/1/2 26/1/2
f 21/14/2 22/14/2 26/14/2
f 23/14/2 24/14/2 26/14/2
f 25/14/2 26/14/2 27/14/2
f 24/14/2 18/14/2 28/14/2
f 27/14/2 26/14/2 28/14/2
f 26/14/2 24/14/2 28/14/2
f 32/1/3 30/1/3 29/1/3
f 33/1/3 30/1/3 32/1/3
f 34/14/3 31/14/3 30/14/3
f 34/1/3 30/1/3 33/1/3
f 35/14/3 31/14/3 34/14/3
f 36/1/3 32/1/3 29/1/3
f 37/1/3 32/1/3 36/1/3
f 38/13/3 33/13/3 32/13/3
f 38/1/3 32/1/3 37/1/3
f 39/1/3 34/1/3 33/1/3
f 39/13/3 33/13/3 38/13/3
f 39/1/3 35/1/3 34/1/3
f 40/14/3 37/14/3 36/14/3
f 41/1/3 38/1/3 37/1/3
f 41/14/3 37/14/3 40/14/3
f 42/7/3 39/7/3 38/7/3
f 42/1/3 38/1/3 41/1/3
f 43/1/3 35/1/3 39/1/3
f 43/7/3 39/7/3 42/7/3
f 44/14/3 40/14/3 36/14/3
f 44/1/3 41/1/3 40/1/3
f 45/2/3 42/2/3 41/2/3
f 45/1/3 41/1/3 44/1/3
f 46/1/3 43/1/3 42/1/3
f 46/2/3 42/2/3 45/2/3
f 47/1/3 35/1/3 43/1/3
f 47/1/3 43/1/3 46/1/3
f 48/14/3 44/14/3 36/14/3
f 48/14/3 45/14/3 44/14/3
f 49/1/3 46/1/3 45/1/3
f 49/14/3 45/14/3 48/14/3
f 50/7/3 47/7/3 46/7/3
f 50/1/3 46/1/3 49/1/3
f 51/1/3 35/1/3 47/1/3
f 51/7/3 47/7/3 50/7/3
f 52/1/3 50/1/3 49/1/3
f 52/1/3 49/1/3 48/1/3
f 52/13/3 51/13/3 50/13/3
f 53/1/3 35/1/3 51/1/3
f 53/13/3 51/13/3 52/13/3
f 54/1/3 35/1/3 53/1/3
f 55/14/3 31/14/3 35/14/3
f 55/1/3 35/1/3 54/1/3
f 56/1/3 52/1/3 48/1/3
f 56/1/3 54/1/3 53/1/3
f 56/1/3 53/1/3 52/1/3
f 57/14/3 55/14/3 54/14/3
f 57/1/3 54/1/3 56/1/3
f 58/14/3 31/14/3 55/14/3
f 58/14/3 55/14/3 57/14/3
f 59/1/4 60/1/4 62/1/4
f 60/14/4 61/14/4 63/14/4
f 62/1/4 60/1/4 63/1/4
f 59/1/4 62/1/4 64/1/4
f 62/14/4 63/14/4 64/14/4
f 63/14/4 61/14/4 65/14/4
f 64/14/4 63/14/4 65/14/4
f 59/1/4 64/1/4 66/1/4
f 64/1/4 65/1/4 66/1/4
f 65/14/4 61/14/4 67/14/4
f 66/1/4 65/1/4 67/1/4
f 67/14/4 61/14/4 68/14/4
f 73/1/5 70/1/5 69/1/5
f 74/14/5 71/14/5 70/14/5
f 74/1/5 70/1/5 73/1/5
f 75/1/5 72/1/5 71/1/5
f 75/14/5 71/14/5 74/14/5
f 76/1/5 72/1/5 75/1/5
f 77/5/5 74/5/5 73/5/5
f 77/5/5 75/5/5 74/5/5
f 77/5/5 76/5/5 75/5/5
f 78/5/5 76/5/5 77/5/5
f 79/5/5 76/5/5 78/5/5
f 80/5/5 76/5/5 79/5/5
f 81/5/5 77/5/5 73/5/5
f 81/6/5 78/6/5 77/6/5
f 82/5/5 79/5/5 78/5/5
f 82/6/5 78/6/5 81/6/5
f 83/6/5 80/6/5 79/6/5
f 83/5/5 79/5/5 82/5/5
f 84/5/5 76/5/5 80/5/5
f 84/6/5 80/6/5 83/6/5
f 85/1/5 73/1/5 69/1/5
f 85/5/5 83/5/5 82/5/5
f 85/5/5 84/5/5 83/5/5
f 85/5/5 81/5/5 73/5/5
f 85/5/5 82/5/5 81/5/5
f 86/1/5 72/1/5 76/1/5
f 86/5/5 84/5/5 85/5/5
f 86/5/5 76/5/5 84/5/5
f 87/1/5 85/1/5 69/1/5
f 87/1/5 86/1/5 85/1/5
f 88/1/5 72/1/5 86/1/5
f 88/1/5 86/1/5 87/1/5
f 89/14/6 90/14/6 91/14/6
f 91/14/6 90/14/6 92/14/6
